<svg width="300" height="300" viewBox="0 0 300 300" fill="none" xmlns="http://www.w3.org/2000/svg">
<rect width="300" height="300" fill="white"/>
<circle cx="150" cy="150" r="100" fill="#FFF4EC"/>
<path d="M29 144.74C29 143.149 29.6321 141.623 30.7574 140.498C31.8826 139.372 33.4087 138.74 35 138.74H185.32C186.911 138.74 188.437 139.372 189.563 140.498C190.688 141.623 191.32 143.149 191.32 144.74C191.32 146.332 190.688 147.858 189.563 148.983C188.437 150.108 186.911 150.74 185.32 150.74H35C33.4087 150.74 31.8826 150.108 30.7574 148.983C29.6321 147.858 29 146.332 29 144.74Z" fill="#C9C6D7"/>
<path d="M64.83 116.92C62.1521 116.92 59.5343 117.714 57.3076 119.202C55.081 120.69 53.3455 122.804 52.3207 125.278C51.2959 127.753 51.0278 130.475 51.5502 133.101C52.0727 135.728 53.3622 138.141 55.2558 140.034C57.1494 141.928 59.562 143.217 62.1885 143.74C64.815 144.262 67.5375 143.994 70.0116 142.969C72.4857 141.944 74.6004 140.209 76.0881 137.982C77.5759 135.756 78.37 133.138 78.37 130.46C78.37 126.869 76.9435 123.425 74.4043 120.886C71.865 118.346 68.4211 116.92 64.83 116.92Z" fill="#161225"/>
<path d="M136.87 116.92C134.192 116.92 131.574 117.714 129.348 119.202C127.121 120.69 125.386 122.804 124.361 125.278C123.336 127.753 123.068 130.475 123.59 133.101C124.113 135.728 125.402 138.141 127.296 140.034C129.189 141.928 131.602 143.217 134.229 143.74C136.855 144.262 139.578 143.994 142.052 142.969C144.526 141.944 146.64 140.209 148.128 137.982C149.616 135.756 150.41 133.138 150.41 130.46C150.407 126.87 148.98 123.427 146.441 120.889C143.903 118.35 140.46 116.923 136.87 116.92Z" fill="#161225"/>
<path d="M189.07 100H169.07L163.2 67.8C162.8 65.6132 161.647 63.6356 159.941 62.2106C158.235 60.7857 156.083 60.0035 153.86 60H90.6C88.8318 60.0005 87.0988 60.4939 85.5956 61.4248C84.0923 62.3557 82.8783 63.6873 82.09 65.27L64.8 100H33.44C32.3296 100.003 31.2653 100.445 30.4801 101.23C29.6949 102.015 29.2526 103.08 29.25 104.19V122.28C29.2526 123.39 29.6949 124.455 30.4801 125.24C31.2653 126.025 32.3296 126.467 33.44 126.47H189.07C190.18 126.467 191.245 126.025 192.03 125.24C192.815 124.455 193.257 123.39 193.26 122.28V104.22C193.263 103.668 193.156 103.12 192.947 102.609C192.738 102.098 192.43 101.633 192.04 101.241C191.651 100.849 191.189 100.537 190.679 100.324C190.169 100.112 189.622 100.001 189.07 100Z" fill="#551488"/>
<path d="M192.89 130.52H181.53C180.42 130.52 179.356 130.08 178.571 129.297C177.785 128.513 177.342 127.45 177.34 126.34V120.64C177.342 119.53 177.785 118.466 178.57 117.68C179.355 116.895 180.419 116.453 181.53 116.45H192.89C194 116.453 195.064 116.895 195.85 117.68C196.635 118.466 197.077 119.53 197.08 120.64V126.34C197.067 127.446 196.621 128.504 195.838 129.285C195.054 130.066 193.996 130.51 192.89 130.52Z" fill="#C9C6D7"/>
<path d="M63.3901 113C64.2841 113 65.158 112.735 65.9013 112.238C66.6446 111.742 67.2239 111.036 67.5661 110.21C67.9082 109.384 67.9977 108.475 67.8233 107.598C67.6489 106.721 67.2184 105.916 66.5862 105.284C65.9541 104.652 65.1487 104.221 64.2719 104.047C63.3951 103.872 62.4863 103.962 61.6604 104.304C60.8345 104.646 60.1285 105.225 59.6319 105.969C59.1352 106.712 58.8701 107.586 58.8701 108.48C58.8701 109.679 59.3463 110.828 60.194 111.676C61.0417 112.524 62.1913 113 63.3901 113Z" fill="white"/>
<path d="M35.5501 113C36.444 112.994 37.3161 112.723 38.0561 112.221C38.7961 111.72 39.3707 111.01 39.7073 110.182C40.044 109.354 40.1274 108.444 39.9472 107.569C39.767 106.693 39.3311 105.891 38.6948 105.263C38.0585 104.635 37.2503 104.21 36.3724 104.041C35.4945 103.872 34.5863 103.968 33.7626 104.316C32.939 104.663 32.2369 105.247 31.7452 105.994C31.2535 106.74 30.9942 107.616 31.0001 108.51C31.004 109.103 31.1248 109.69 31.3556 110.237C31.5864 110.784 31.9227 111.28 32.3452 111.697C32.7677 112.114 33.2682 112.444 33.8181 112.667C34.368 112.891 34.9565 113.004 35.5501 113Z" fill="white"/>
<path d="M193.26 105.09H188.26C186.483 105.092 184.781 105.799 183.525 107.055C182.269 108.311 181.562 110.014 181.56 111.79H193.26V105.09Z" fill="#FF5B24"/>
<path d="M193.23 111.79H181.53V116.49H193.23V111.79Z" fill="white"/>
<path d="M66.88 130.52H30.19C29.0821 130.515 28.0209 130.073 27.2365 129.291C26.4522 128.508 26.0079 127.448 26 126.34V120.64C26.0026 119.53 26.4449 118.466 27.2301 117.68C28.0153 116.895 29.0796 116.453 30.19 116.45H66.88C67.9904 116.453 69.0547 116.895 69.8399 117.68C70.6251 118.466 71.0674 119.53 71.07 120.64V126.34C71.0621 127.448 70.6178 128.508 69.8335 129.291C69.0491 130.073 67.9879 130.515 66.88 130.52Z" fill="#C9C6D7"/>
<path d="M150.44 65.8901H144.14V100H150.44V65.8901Z" fill="#551488"/>
<path d="M151.22 65.3502H138.59C137.684 65.3438 136.795 65.5976 136.029 66.0816C135.263 66.5656 134.653 67.2593 134.27 68.0802L119.27 99.6402H161L155.94 69.3602C155.753 68.2421 155.177 67.2261 154.313 66.4921C153.449 65.7582 152.353 65.3537 151.22 65.3502Z" fill="#C9C6D7"/>
<path d="M125.35 69.4798C125.56 69.0441 125.66 68.5633 125.64 68.0798C125.614 67.5925 125.47 67.1188 125.22 66.6998C124.974 66.2891 124.631 65.9455 124.22 65.6998C123.808 65.4669 123.343 65.343 122.87 65.3398H94.2998L116.41 88.1398L125.35 69.4798Z" fill="#C9C6D7"/>
<path d="M71 99.64H94.79L78.86 83.23L71 99.64Z" fill="#C9C6D7"/>
<path d="M116.41 88.1401L94.3004 65.3501H90.3004C89.4349 65.3515 88.588 65.6014 87.8604 66.0701C87.1239 66.5412 86.5347 67.21 86.1604 68.0001L78.8604 83.2201L94.7904 99.6401H110.9L116.41 88.1401Z" fill="white"/>
<path d="M161.23 137.53C162.615 137.53 163.968 137.119 165.119 136.35C166.271 135.581 167.168 134.488 167.698 133.209C168.227 131.929 168.366 130.522 168.096 129.164C167.826 127.806 167.159 126.559 166.18 125.58C165.201 124.601 163.954 123.934 162.596 123.664C161.238 123.394 159.831 123.533 158.552 124.063C157.273 124.592 156.179 125.49 155.41 126.641C154.641 127.792 154.23 129.145 154.23 130.53C154.23 132.386 154.968 134.167 156.281 135.48C157.593 136.792 159.374 137.53 161.23 137.53Z" fill="#C9C6D7"/>
<path d="M86.9102 137.53C88.2946 137.53 89.648 137.119 90.7991 136.35C91.9503 135.581 92.8475 134.488 93.3773 133.209C93.9071 131.929 94.0458 130.522 93.7757 129.164C93.5056 127.806 92.8389 126.559 91.8599 125.58C90.8809 124.601 89.6337 123.934 88.2758 123.664C86.9179 123.394 85.5105 123.533 84.2314 124.063C82.9523 124.592 81.859 125.49 81.0899 126.641C80.3207 127.792 79.9102 129.145 79.9102 130.53C79.9102 132.386 80.6477 134.167 81.9604 135.48C83.2732 136.792 85.0536 137.53 86.9102 137.53Z" fill="#C9C6D7"/>
<path d="M161.23 116.92C158.551 116.918 155.933 117.71 153.705 119.197C151.477 120.684 149.74 122.798 148.713 125.271C147.687 127.745 147.417 130.468 147.939 133.095C148.46 135.722 149.749 138.136 151.642 140.031C153.535 141.925 155.948 143.216 158.574 143.739C161.201 144.262 163.924 143.995 166.399 142.97C168.874 141.946 170.989 140.21 172.477 137.983C173.965 135.757 174.76 133.138 174.76 130.46C174.757 126.871 173.331 123.431 170.795 120.892C168.258 118.354 164.818 116.925 161.23 116.92ZM161.23 134.51C160.439 134.51 159.665 134.275 159.007 133.836C158.35 133.396 157.837 132.772 157.534 132.041C157.231 131.31 157.152 130.505 157.307 129.73C157.461 128.954 157.842 128.241 158.401 127.681C158.961 127.122 159.673 126.741 160.449 126.587C161.225 126.432 162.03 126.512 162.76 126.814C163.491 127.117 164.116 127.63 164.556 128.288C164.995 128.945 165.23 129.719 165.23 130.51C165.23 131.571 164.808 132.588 164.058 133.338C163.308 134.088 162.291 134.51 161.23 134.51Z" fill="#161225"/>
<path d="M86.9101 116.92C84.2322 116.92 81.6143 117.714 79.3877 119.202C77.1611 120.69 75.4256 122.804 74.4008 125.278C73.376 127.753 73.1078 130.475 73.6303 133.101C74.1527 135.728 75.4423 138.141 77.3359 140.034C79.2295 141.928 81.6421 143.217 84.2686 143.74C86.8951 144.262 89.6175 143.994 92.0917 142.969C94.5658 141.944 96.6804 140.209 98.1682 137.982C99.656 135.756 100.45 133.138 100.45 130.46C100.45 126.869 99.0236 123.425 96.4843 120.886C93.9451 118.346 90.5012 116.92 86.9101 116.92ZM86.9101 134.51C86.119 134.51 85.3456 134.275 84.6878 133.836C84.03 133.396 83.5174 132.772 83.2146 132.041C82.9119 131.31 82.8326 130.505 82.987 129.73C83.1413 128.954 83.5223 128.241 84.0817 127.681C84.6411 127.122 85.3538 126.741 86.1298 126.587C86.9057 126.432 87.71 126.512 88.4409 126.814C89.1718 127.117 89.7965 127.63 90.236 128.288C90.6755 128.945 90.9101 129.719 90.9101 130.51C90.9101 131.571 90.4887 132.588 89.7385 133.338C88.9884 134.088 87.971 134.51 86.9101 134.51Z" fill="#161225"/>
<path fill-rule="evenodd" clip-rule="evenodd" d="M232 207.251C214.456 232.333 185.698 248.992 153 249.956V201H232V207.251Z" fill="#FFD3BB"/>
<path d="M134 86C134 79.3726 139.373 74 146 74H206C212.627 74 218 79.3726 218 86V208C218 214.627 212.627 220 206 220H146C139.373 220 134 214.627 134 208V86Z" fill="#FF5B24"/>
<rect x="134" y="93" width="84" height="108" fill="#FF985F"/>
<path d="M176.58 140.474C182.765 140.474 186.277 137.464 189.617 133.121C191.459 130.777 193.795 130.283 195.465 131.616C197.135 132.956 197.307 135.457 195.465 137.801C190.62 144.151 184.435 148 176.572 148C168.051 148 160.525 143.32 155.343 135.128C153.838 132.956 154.175 130.612 155.845 129.444C157.515 128.276 160.023 128.778 161.528 131.114C165.213 136.633 170.222 140.474 176.58 140.474Z" fill="#FFF4EC"/>
<path d="M183.095 124.937C185.865 124.937 188.112 122.691 188.112 119.92C188.112 117.149 185.865 114.902 183.095 114.902C180.324 114.902 178.077 117.149 178.077 119.92C178.077 122.691 180.324 124.937 183.095 124.937Z" fill="#FFF4EC"/>
<path fill-rule="evenodd" clip-rule="evenodd" d="M122 146C122 139.925 126.925 135 133 135H153C159.075 135 164 139.925 164 146C164 152.075 159.075 157 153 157C159.075 157 164 161.925 164 168C164 174.075 159.075 179 153 179C159.075 179 164 183.925 164 190C164 196.075 159.075 201 153 201H133C126.925 201 122 196.075 122 190C122 183.925 126.925 179 133 179C126.925 179 122 174.075 122 168C122 161.925 126.925 157 133 157C126.925 157 122 152.075 122 146ZM207 189.792C194.495 196.555 186 209.785 186 225H211.5L225.442 212.5C229.348 210.386 232 206.253 232 201.5V186C232 168.603 217.897 154.5 200.5 154.5H194C187.096 154.5 181.5 160.096 181.5 167C181.5 173.904 187.096 179.5 194 179.5H200.5C204.09 179.5 207 182.41 207 186V189.792Z" fill="#FFD3BB"/>
</svg>
